# xmcd CD database file
#
# Track frame offsets:
#	150
#	14763
#	29155
#	42613
#	56957
#	70115
#	83643
#	96241
#	110693
#	125263
#	137749
#	149295
#	162942
#	176373
#	190057
#	203634
#	215579
#	228115
#	240792
#	254424
#
# Disc length: 3583 seconds
#
# Revision: 0
# Processed by: cddbd v1.5.2PL0 Copyright (c) Steve Scherf et al.
# Submitted via: CDex 1.51
#
DISCID=200dfd14
DTITLE=Various Artist - The Roots Of Led Zeppelin - When The Levee Breaks
DYEAR=2009
DGENRE=Blues
TTITLE0=Blind Willie Johnson - Jesus Make Up My Dying Bed
TTITLE1=Blind Willie Johnson - Nobody's Fault But Mine
TTITLE2=Mephis Jug Band - Stealin' Stealin'
TTITLE3=Mephis Minnie - When The Levee Breaks
TTITLE4=Robert Wilkens - That's No Way To Get Along
TTITLE5=Sleepy John Estes - The Girl I Love
TTITLE6=Big Bill Broonzy - I Can't Be Satisfied
TTITLE7=Sleepy John Estes - Drop Down Mama
TTITLE8=Oscar Woods - Lone Wolf Blues
TTITLE9=Robert Johnson - Travellin' Riverside Blues
TTITLE10=Snooy Boy Williamson - Got The Bottle Up And Gone
TTITLE11=Bukka White - Shake 'Em On Down
TTITLE12=Sonny Boy Williamson - Sugar Mama Blues
TTITLE13=Robert Johnson - Sweet Home Chicago
TTITLE14=Sonny Boy Williamson - Good Morning Schoolgirl
TTITLE15=Big Bill Broonzy - Truckin Little Woman
TTITLE16=Blind Boy Fuller - I Want Some Of Your Pie
TTITLE17=Bukka White - Fixin' To Die
TTITLE18=Leadbelly - Gallis Pole
TTITLE19=St. Louis Jimmy - Goin' Down Slow
EXTD=YEAR: 2009
EXTT0=
EXTT1=
EXTT2=
EXTT3=
EXTT4=
EXTT5=
EXTT6=
EXTT7=
EXTT8=
EXTT9=
EXTT10=
EXTT11=
EXTT12=
EXTT13=
EXTT14=
EXTT15=
EXTT16=
EXTT17=
EXTT18=
EXTT19=
PLAYORDER=
